# xmcd
#
# Track frame offsets: 
#        150
#        15914
#        28895
#        40930
#        48454
#        62542
#        80312
#        93797
#        109469
#        121865
#        134581
#        146630
#        159252
#        174464
#        190203
#        206186
#        219040
#        231117
#        244498
#        256673
#
# Disc length: 3587 seconds
#
# Revision: 0
# Processed by: cddbd v1.5.2PL0 Copyright (c) Steve Scherf et al.
# Submitted via: ExactAudioCopy v0.95b4
#
DISCID=0f0e0114
DTITLE=배호 - 천상의 가수 배호 전집 (아세아-2006) (10 CD)-08
DYEAR=2006
DGENRE=Country
TTITLE0=낙엽 (코러스)
TTITLE1=타부
TTITLE2=밤안개 속의 데이트
TTITLE3=썸머 타임
TTITLE4=장미의 탱고
TTITLE5=해변의 길손
TTITLE6=검은 눈동자
TTITLE7=하이 눈
TTITLE8=부베의 연인
TTITLE9=그린 필드
TTITLE10=연심
TTITLE11=남의 속도 모르고
TTITLE12=쇼팡의 이별곡
TTITLE13=낙엽
TTITLE14=낙엽(MR)
TTITLE15=타부(MR)
TTITLE16=밤안개 속의 데이트(MR)
TTITLE17=검은 눈동자(MR)
TTITLE18=부베의 연인(MR)
TTITLE19=그린 필드(MR)
EXTD=
EXTT0=
EXTT1=
EXTT2=
EXTT3=
EXTT4=
EXTT5=
EXTT6=
EXTT7=
EXTT8=
EXTT9=
EXTT10=
EXTT11=
EXTT12=
EXTT13=
EXTT14=
EXTT15=
EXTT16=
EXTT17=
EXTT18=
EXTT19=
PLAYORDER=
